<svg width="660" height="681" viewBox="0 0 660 681" fill="none" xmlns="http://www.w3.org/2000/svg">
<path d="M262.13 18.1267C304.128 -6.04224 355.872 -6.04224 397.87 18.1267L509.085 82.1289C537.54 98.5044 537.494 139.473 509.002 155.785L338.225 253.559C310.303 272.995 296.511 290.327 290.131 317.98C283.918 344.906 255.246 362.604 231.206 348.864L39.1472 239.087C17.6648 226.808 5.32906 201.286 17.2063 179.621C28.0436 159.853 44.2949 143.003 67.8696 129.92L262.13 18.1267Z" fill="white"/>
<path d="M285.811 518.579V574.753C285.811 575.326 285.822 575.898 285.844 576.466V639.535C285.844 671.222 251.605 691.165 223.925 675.6L67.8696 587.852C25.8718 563.683 0 519.017 0 470.679V389.739C0 357.91 34.5165 337.983 62.1985 353.832L252.085 462.546C272.358 474.152 285.084 495.387 285.811 518.579Z" fill="white"/>
<path d="M374.123 488.554V373.325C374.123 349.321 386.999 327.148 407.882 315.193L589.622 211.143C618.739 194.473 655.169 205.898 659.367 239.114C659.782 242.395 660 245.132 660 247.093V470.679C660 519.017 634.128 563.683 592.13 587.852L436.075 675.601C408.395 691.165 374.156 671.222 374.156 639.535V491.17C374.156 490.296 374.145 489.424 374.123 488.554Z" fill="white"/>
</svg>
