<svg width="1890" height="625" viewBox="0 0 1890 625" fill="none" xmlns="http://www.w3.org/2000/svg">
<path d="M823.922 509.056V165.457H946.636C1065.42 165.457 1122.85 239.085 1122.85 337.747C1122.85 435.919 1065.42 509.056 946.636 509.056H823.922ZM892.642 447.208H938.291C1019.77 447.208 1051.68 400.086 1051.68 337.747C1051.68 275.409 1019.77 227.305 938.291 227.305H892.642V447.208ZM1275.92 515.438C1196.89 515.438 1139.95 455.553 1139.95 381.924C1139.95 308.296 1196.89 247.921 1275.92 247.921C1354.94 247.921 1411.88 308.296 1411.88 381.924C1411.88 455.553 1354.94 515.438 1275.92 515.438ZM1206.21 381.924C1206.21 421.684 1233.7 455.062 1275.92 455.062C1318.13 455.062 1345.62 421.684 1345.62 381.924C1345.62 342.165 1318.13 308.296 1275.92 308.296C1233.7 308.296 1206.21 342.165 1206.21 381.924ZM1560.55 515.438C1487.41 515.438 1429 455.553 1429 381.434C1429 307.314 1485.94 247.921 1563.98 247.43C1610.62 246.939 1648.41 265.101 1670.01 295.043L1618.96 336.766C1607.18 319.095 1587.55 307.805 1564.97 307.805C1522.75 307.805 1495.26 341.674 1495.26 381.434C1495.26 421.193 1524.22 455.062 1566.44 455.062C1591.96 455.062 1608.65 442.3 1621.91 424.629L1670.01 466.352C1645.96 497.276 1610.62 515.438 1560.55 515.438ZM1783.6 515.438C1740.41 515.438 1705.55 500.712 1677.58 470.77L1722.24 430.028C1740.9 451.135 1760.53 461.443 1782.13 461.443C1804.71 461.443 1817.47 450.154 1817.47 434.937C1817.47 421.684 1811.09 414.321 1770.84 404.995C1702.61 388.796 1692.3 357.872 1692.3 325.476C1692.3 280.808 1727.64 247.43 1787.53 247.43C1828.76 247.43 1856.25 257.738 1882.26 291.607L1834.16 328.421C1821.89 308.787 1806.18 300.933 1789 300.933C1770.84 300.933 1757.09 307.805 1757.09 323.512C1757.09 332.348 1761.02 340.202 1791.45 348.055C1865.57 367.199 1882.75 394.687 1882.75 432.974C1882.75 480.096 1840.05 515.438 1783.6 515.438Z" fill="white"/>
<path d="M239.889 16.6362C278.323 -5.54539 325.677 -5.54539 364.111 16.6362L465.89 75.3755C491.931 90.4045 491.889 128.005 465.814 142.975L309.527 232.709C283.974 250.547 271.352 266.454 265.514 291.833C259.828 316.545 233.589 332.788 211.589 320.177L35.8256 219.427C16.166 208.158 4.8769 184.735 15.7463 164.851C25.6641 146.709 40.5365 131.244 62.111 119.237L239.889 16.6362Z" fill="white"/>
<path d="M261.56 475.937V527.491C261.56 528.018 261.57 528.542 261.59 529.064V586.946C261.59 616.028 230.257 634.331 204.925 620.047L62.111 539.514C23.6766 517.332 0 476.339 0 431.976V357.691C0 328.479 31.5878 310.191 56.921 324.737L230.696 424.511C249.249 435.163 260.895 454.652 261.56 475.937Z" fill="white"/>
<path d="M342.379 448.381V342.627C342.379 320.596 354.163 300.247 373.274 289.275L539.593 193.781C566.24 178.482 599.578 188.967 603.421 219.452C603.801 222.463 604 224.975 604 226.775V431.976C604 476.339 580.323 517.332 541.889 539.514L399.074 620.047C373.743 634.331 342.409 616.028 342.409 586.947V450.781C342.409 449.98 342.399 449.18 342.379 448.381Z" fill="white"/>
</svg>
